<mxfile host="app.diagrams.net" modified="2021-03-25T08:27:48.211Z" agent="5.0 (Macintosh; Intel Mac OS X 11_2_0) AppleWebKit/537.36 (KHTML, like Gecko) Chrome/89.0.4389.90 Safari/537.36" etag="F25FRC3IhQ7uMLEhankT" version="14.4.7" type="github">
  <diagram id="q61rn2cDo7-rGFz6u7vU" name="Page-1">
    <mxGraphModel dx="1426" dy="626" grid="1" gridSize="10" guides="1" tooltips="1" connect="1" arrows="1" fold="1" page="1" pageScale="1" pageWidth="827" pageHeight="1169" math="0" shadow="0">
      <root>
        <mxCell id="0" />
        <mxCell id="1" parent="0" />
        <mxCell id="fzw-q2s4QNKM716sb-pk-1" value="&lt;font style=&quot;font-size: 17px;&quot;&gt;1.1 需求部门发起项目&lt;/font&gt;" style="rounded=1;whiteSpace=wrap;html=1;fillColor=#dae8fc;strokeColor=#6c8ebf;fontSize=17;" parent="1" vertex="1">
          <mxGeometry x="30" y="190" width="120" height="60" as="geometry" />
        </mxCell>
        <mxCell id="fzw-q2s4QNKM716sb-pk-2" value="1.2 数据中心咨询服务招标" style="rounded=1;whiteSpace=wrap;html=1;fillColor=#dae8fc;strokeColor=#6c8ebf;fontSize=17;" parent="1" vertex="1">
          <mxGeometry x="190" y="190" width="120" height="60" as="geometry" />
        </mxCell>
        <mxCell id="fzw-q2s4QNKM716sb-pk-3" value="1.3 编制项目建议书" style="rounded=1;whiteSpace=wrap;html=1;fillColor=#dae8fc;strokeColor=#6c8ebf;fontSize=17;" parent="1" vertex="1">
          <mxGeometry x="354" y="190" width="120" height="60" as="geometry" />
        </mxCell>
        <mxCell id="fzw-q2s4QNKM716sb-pk-4" value="2.1 进入内部审批阶段" style="rounded=1;whiteSpace=wrap;html=1;fillColor=#ffe6cc;strokeColor=#d79b00;fontSize=17;" parent="1" vertex="1">
          <mxGeometry x="500" y="190" width="120" height="60" as="geometry" />
        </mxCell>
        <mxCell id="CvPtE23ecwARMVToVUDU-3" style="edgeStyle=orthogonalEdgeStyle;rounded=0;orthogonalLoop=1;jettySize=auto;html=1;exitX=0.5;exitY=1;exitDx=0;exitDy=0;fontSize=17;" edge="1" parent="1" source="fzw-q2s4QNKM716sb-pk-5" target="fzw-q2s4QNKM716sb-pk-11">
          <mxGeometry relative="1" as="geometry" />
        </mxCell>
        <mxCell id="fzw-q2s4QNKM716sb-pk-5" value="2.2 总公司部门审批" style="rounded=1;whiteSpace=wrap;html=1;fillColor=#ffe6cc;strokeColor=#d79b00;fontSize=17;" parent="1" vertex="1">
          <mxGeometry x="660" y="190" width="120" height="60" as="geometry" />
        </mxCell>
        <mxCell id="fzw-q2s4QNKM716sb-pk-11" value="2.3 总公司董事会审批" style="rounded=1;whiteSpace=wrap;html=1;fillColor=#ffe6cc;strokeColor=#d79b00;fontSize=17;" parent="1" vertex="1">
          <mxGeometry x="30" y="304" width="120" height="60" as="geometry" />
        </mxCell>
        <mxCell id="fzw-q2s4QNKM716sb-pk-12" value="2.4 人民银行总行审批" style="rounded=1;whiteSpace=wrap;html=1;fillColor=#ffe6cc;strokeColor=#d79b00;fontSize=17;" parent="1" vertex="1">
          <mxGeometry x="190" y="304" width="120" height="60" as="geometry" />
        </mxCell>
        <mxCell id="fzw-q2s4QNKM716sb-pk-13" value="2.5 编制可行性方案和初步设计" style="rounded=1;whiteSpace=wrap;html=1;fillColor=#ffe6cc;strokeColor=#d79b00;fontSize=17;" parent="1" vertex="1">
          <mxGeometry x="354" y="304" width="120" height="60" as="geometry" />
        </mxCell>
        <mxCell id="fzw-q2s4QNKM716sb-pk-14" value="2.6 内部评审" style="rounded=1;whiteSpace=wrap;html=1;fillColor=#ffe6cc;strokeColor=#d79b00;fontSize=17;" parent="1" vertex="1">
          <mxGeometry x="500" y="304" width="120" height="60" as="geometry" />
        </mxCell>
        <mxCell id="CvPtE23ecwARMVToVUDU-4" style="edgeStyle=orthogonalEdgeStyle;rounded=0;orthogonalLoop=1;jettySize=auto;html=1;exitX=0.5;exitY=1;exitDx=0;exitDy=0;fontSize=17;" edge="1" parent="1" source="fzw-q2s4QNKM716sb-pk-15" target="fzw-q2s4QNKM716sb-pk-16">
          <mxGeometry relative="1" as="geometry">
            <Array as="points">
              <mxPoint x="720" y="390" />
              <mxPoint x="90" y="390" />
            </Array>
          </mxGeometry>
        </mxCell>
        <mxCell id="fzw-q2s4QNKM716sb-pk-15" value="3.1 进入外部审批阶段" style="rounded=1;whiteSpace=wrap;html=1;fillColor=#fff2cc;strokeColor=#d6b656;fontSize=17;" parent="1" vertex="1">
          <mxGeometry x="660" y="304" width="120" height="60" as="geometry" />
        </mxCell>
        <mxCell id="fzw-q2s4QNKM716sb-pk-16" value="3.2 能评 环评" style="rounded=1;whiteSpace=wrap;html=1;fillColor=#fff2cc;strokeColor=#d6b656;fontSize=17;" parent="1" vertex="1">
          <mxGeometry x="30" y="413" width="120" height="60" as="geometry" />
        </mxCell>
        <mxCell id="fzw-q2s4QNKM716sb-pk-17" value="3.3 报发改审批立项" style="rounded=1;whiteSpace=wrap;html=1;fillColor=#fff2cc;strokeColor=#d6b656;fontSize=17;" parent="1" vertex="1">
          <mxGeometry x="190" y="413" width="120" height="60" as="geometry" />
        </mxCell>
        <mxCell id="fzw-q2s4QNKM716sb-pk-18" value="3.4 取得立项批复" style="rounded=1;whiteSpace=wrap;html=1;fillColor=#fff2cc;strokeColor=#d6b656;fontSize=17;" parent="1" vertex="1">
          <mxGeometry x="354" y="413" width="120" height="60" as="geometry" />
        </mxCell>
        <mxCell id="fzw-q2s4QNKM716sb-pk-19" value="3.5 确定市政供电 供水" style="rounded=1;whiteSpace=wrap;html=1;fillColor=#fff2cc;strokeColor=#d6b656;fontSize=17;" parent="1" vertex="1">
          <mxGeometry x="500" y="413" width="120" height="60" as="geometry" />
        </mxCell>
        <mxCell id="CvPtE23ecwARMVToVUDU-7" style="edgeStyle=orthogonalEdgeStyle;rounded=0;orthogonalLoop=1;jettySize=auto;html=1;exitX=0.5;exitY=1;exitDx=0;exitDy=0;entryX=0.5;entryY=0;entryDx=0;entryDy=0;fontSize=17;" edge="1" parent="1" source="fzw-q2s4QNKM716sb-pk-20" target="fzw-q2s4QNKM716sb-pk-21">
          <mxGeometry relative="1" as="geometry" />
        </mxCell>
        <mxCell id="fzw-q2s4QNKM716sb-pk-20" value="4.1 EPC招标 监理招标" style="rounded=1;whiteSpace=wrap;html=1;fillColor=#1ba1e2;strokeColor=#006EAF;fontColor=#ffffff;fontSize=17;" parent="1" vertex="1">
          <mxGeometry x="660" y="413" width="120" height="60" as="geometry" />
        </mxCell>
        <mxCell id="fzw-q2s4QNKM716sb-pk-21" value="4.2 深化设计" style="rounded=1;whiteSpace=wrap;html=1;fillColor=#1ba1e2;strokeColor=#006EAF;fontColor=#ffffff;fontSize=17;" parent="1" vertex="1">
          <mxGeometry x="30" y="513" width="120" height="60" as="geometry" />
        </mxCell>
        <mxCell id="fzw-q2s4QNKM716sb-pk-54" value="" style="edgeStyle=orthogonalEdgeStyle;rounded=0;orthogonalLoop=1;jettySize=auto;html=1;fontSize=12;" parent="1" source="fzw-q2s4QNKM716sb-pk-22" target="fzw-q2s4QNKM716sb-pk-23" edge="1">
          <mxGeometry relative="1" as="geometry" />
        </mxCell>
        <mxCell id="fzw-q2s4QNKM716sb-pk-22" value="4.3 设计评审" style="rounded=1;whiteSpace=wrap;html=1;fillColor=#1ba1e2;strokeColor=#006EAF;fontColor=#ffffff;fontSize=17;" parent="1" vertex="1">
          <mxGeometry x="190" y="513" width="120" height="60" as="geometry" />
        </mxCell>
        <mxCell id="fzw-q2s4QNKM716sb-pk-23" value="4.4 财评" style="rounded=1;whiteSpace=wrap;html=1;fillColor=#1ba1e2;strokeColor=#006EAF;fontColor=#ffffff;fontSize=17;" parent="1" vertex="1">
          <mxGeometry x="354" y="513" width="120" height="60" as="geometry" />
        </mxCell>
        <mxCell id="fzw-q2s4QNKM716sb-pk-24" value="4.5 取得施工许可证" style="rounded=1;whiteSpace=wrap;html=1;fillColor=#1ba1e2;strokeColor=#006EAF;fontColor=#ffffff;fontSize=17;" parent="1" vertex="1">
          <mxGeometry x="500" y="513" width="120" height="60" as="geometry" />
        </mxCell>
        <mxCell id="CvPtE23ecwARMVToVUDU-8" style="edgeStyle=orthogonalEdgeStyle;rounded=0;orthogonalLoop=1;jettySize=auto;html=1;exitX=0.5;exitY=1;exitDx=0;exitDy=0;fontSize=17;" edge="1" parent="1" source="fzw-q2s4QNKM716sb-pk-25" target="fzw-q2s4QNKM716sb-pk-26">
          <mxGeometry relative="1" as="geometry" />
        </mxCell>
        <mxCell id="fzw-q2s4QNKM716sb-pk-25" value="5.1 进入工程实施阶段" style="rounded=1;whiteSpace=wrap;html=1;fillColor=#0050ef;strokeColor=#001DBC;fontColor=#ffffff;fontSize=17;" parent="1" vertex="1">
          <mxGeometry x="660" y="513" width="120" height="60" as="geometry" />
        </mxCell>
        <mxCell id="fzw-q2s4QNKM716sb-pk-26" value="5.2 单机试运转 联调联试&lt;br&gt;假负载试运转" style="rounded=1;whiteSpace=wrap;html=1;fillColor=#0050ef;strokeColor=#001DBC;fontColor=#ffffff;fontSize=17;" parent="1" vertex="1">
          <mxGeometry x="30" y="623" width="120" height="60" as="geometry" />
        </mxCell>
        <mxCell id="fzw-q2s4QNKM716sb-pk-27" value="5.3 整体交付验收" style="rounded=1;whiteSpace=wrap;html=1;fillColor=#0050ef;strokeColor=#001DBC;fontColor=#ffffff;fontSize=17;" parent="1" vertex="1">
          <mxGeometry x="190" y="623" width="120" height="60" as="geometry" />
        </mxCell>
        <mxCell id="fzw-q2s4QNKM716sb-pk-28" value="5.4 第三方测试" style="rounded=1;whiteSpace=wrap;html=1;fillColor=#0050ef;strokeColor=#001DBC;fontColor=#ffffff;fontSize=17;" parent="1" vertex="1">
          <mxGeometry x="353.5" y="623" width="120" height="60" as="geometry" />
        </mxCell>
        <mxCell id="fzw-q2s4QNKM716sb-pk-29" value="5.5 交接运维" style="rounded=1;whiteSpace=wrap;html=1;fillColor=#0050ef;strokeColor=#001DBC;fontColor=#ffffff;fontSize=17;" parent="1" vertex="1">
          <mxGeometry x="500" y="623" width="120" height="60" as="geometry" />
        </mxCell>
        <mxCell id="fzw-q2s4QNKM716sb-pk-30" value="运营及维护阶段" style="rounded=1;whiteSpace=wrap;html=1;fillColor=#60a917;strokeColor=#2D7600;fontColor=#ffffff;fontSize=17;" parent="1" vertex="1">
          <mxGeometry x="660" y="623" width="120" height="60" as="geometry" />
        </mxCell>
        <mxCell id="fzw-q2s4QNKM716sb-pk-46" value="" style="endArrow=classic;html=1;exitX=1;exitY=0.5;exitDx=0;exitDy=0;" parent="1" source="fzw-q2s4QNKM716sb-pk-1" edge="1">
          <mxGeometry width="50" height="50" relative="1" as="geometry">
            <mxPoint x="160" y="219.5" as="sourcePoint" />
            <mxPoint x="190" y="219.5" as="targetPoint" />
          </mxGeometry>
        </mxCell>
        <mxCell id="fzw-q2s4QNKM716sb-pk-49" value="" style="endArrow=classic;html=1;fontSize=12;" parent="1" edge="1">
          <mxGeometry width="50" height="50" relative="1" as="geometry">
            <mxPoint x="320" y="220" as="sourcePoint" />
            <mxPoint x="350" y="220" as="targetPoint" />
          </mxGeometry>
        </mxCell>
        <mxCell id="fzw-q2s4QNKM716sb-pk-50" value="" style="endArrow=classic;html=1;fontSize=12;" parent="1" edge="1">
          <mxGeometry width="50" height="50" relative="1" as="geometry">
            <mxPoint x="313.5" y="344" as="sourcePoint" />
            <mxPoint x="353.5" y="344" as="targetPoint" />
          </mxGeometry>
        </mxCell>
        <mxCell id="fzw-q2s4QNKM716sb-pk-51" value="" style="endArrow=classic;html=1;fontSize=12;" parent="1" edge="1">
          <mxGeometry width="50" height="50" relative="1" as="geometry">
            <mxPoint x="313.5" y="442.5" as="sourcePoint" />
            <mxPoint x="353.5" y="442.5" as="targetPoint" />
          </mxGeometry>
        </mxCell>
        <mxCell id="fzw-q2s4QNKM716sb-pk-52" value="" style="endArrow=classic;html=1;fontSize=12;" parent="1" edge="1">
          <mxGeometry width="50" height="50" relative="1" as="geometry">
            <mxPoint x="314" y="542.5" as="sourcePoint" />
            <mxPoint x="354" y="542.5" as="targetPoint" />
          </mxGeometry>
        </mxCell>
        <mxCell id="fzw-q2s4QNKM716sb-pk-53" value="" style="endArrow=classic;html=1;fontSize=12;" parent="1" edge="1">
          <mxGeometry width="50" height="50" relative="1" as="geometry">
            <mxPoint x="313.5" y="652.5" as="sourcePoint" />
            <mxPoint x="353.5" y="652.5" as="targetPoint" />
          </mxGeometry>
        </mxCell>
        <mxCell id="fzw-q2s4QNKM716sb-pk-57" value="" style="endArrow=classic;html=1;" parent="1" edge="1">
          <mxGeometry width="50" height="50" relative="1" as="geometry">
            <mxPoint x="150" y="343.5" as="sourcePoint" />
            <mxPoint x="190" y="343.5" as="targetPoint" />
          </mxGeometry>
        </mxCell>
        <mxCell id="fzw-q2s4QNKM716sb-pk-58" value="" style="endArrow=classic;html=1;" parent="1" edge="1">
          <mxGeometry width="50" height="50" relative="1" as="geometry">
            <mxPoint x="150" y="442.5" as="sourcePoint" />
            <mxPoint x="190" y="442.5" as="targetPoint" />
          </mxGeometry>
        </mxCell>
        <mxCell id="fzw-q2s4QNKM716sb-pk-59" value="" style="endArrow=classic;html=1;" parent="1" edge="1">
          <mxGeometry width="50" height="50" relative="1" as="geometry">
            <mxPoint x="150" y="542.5" as="sourcePoint" />
            <mxPoint x="190" y="542.5" as="targetPoint" />
          </mxGeometry>
        </mxCell>
        <mxCell id="fzw-q2s4QNKM716sb-pk-60" value="" style="endArrow=classic;html=1;" parent="1" edge="1">
          <mxGeometry width="50" height="50" relative="1" as="geometry">
            <mxPoint x="150" y="663" as="sourcePoint" />
            <mxPoint x="190" y="663" as="targetPoint" />
          </mxGeometry>
        </mxCell>
        <mxCell id="fzw-q2s4QNKM716sb-pk-61" value="" style="endArrow=classic;html=1;fontSize=12;" parent="1" edge="1">
          <mxGeometry width="50" height="50" relative="1" as="geometry">
            <mxPoint x="620" y="219.5" as="sourcePoint" />
            <mxPoint x="660" y="219.5" as="targetPoint" />
          </mxGeometry>
        </mxCell>
        <mxCell id="fzw-q2s4QNKM716sb-pk-63" value="" style="endArrow=classic;html=1;fontSize=12;" parent="1" edge="1">
          <mxGeometry width="50" height="50" relative="1" as="geometry">
            <mxPoint x="620" y="652.5" as="sourcePoint" />
            <mxPoint x="660" y="652.5" as="targetPoint" />
          </mxGeometry>
        </mxCell>
        <mxCell id="fzw-q2s4QNKM716sb-pk-64" value="" style="endArrow=classic;html=1;fontSize=12;" parent="1" edge="1">
          <mxGeometry width="50" height="50" relative="1" as="geometry">
            <mxPoint x="620" y="542.5" as="sourcePoint" />
            <mxPoint x="660" y="542.5" as="targetPoint" />
          </mxGeometry>
        </mxCell>
        <mxCell id="fzw-q2s4QNKM716sb-pk-65" value="" style="endArrow=classic;html=1;fontSize=12;" parent="1" edge="1">
          <mxGeometry width="50" height="50" relative="1" as="geometry">
            <mxPoint x="620" y="442.5" as="sourcePoint" />
            <mxPoint x="660" y="442.5" as="targetPoint" />
          </mxGeometry>
        </mxCell>
        <mxCell id="fzw-q2s4QNKM716sb-pk-66" value="" style="endArrow=classic;html=1;fontSize=12;" parent="1" edge="1">
          <mxGeometry width="50" height="50" relative="1" as="geometry">
            <mxPoint x="620" y="333.5" as="sourcePoint" />
            <mxPoint x="660" y="333.5" as="targetPoint" />
          </mxGeometry>
        </mxCell>
        <mxCell id="fzw-q2s4QNKM716sb-pk-69" value="" style="endArrow=classic;html=1;fontSize=12;" parent="1" edge="1">
          <mxGeometry width="50" height="50" relative="1" as="geometry">
            <mxPoint x="480" y="542.5" as="sourcePoint" />
            <mxPoint x="500" y="542.5" as="targetPoint" />
          </mxGeometry>
        </mxCell>
        <mxCell id="fzw-q2s4QNKM716sb-pk-70" value="" style="endArrow=classic;html=1;fontSize=12;" parent="1" edge="1">
          <mxGeometry width="50" height="50" relative="1" as="geometry">
            <mxPoint x="480" y="442.5" as="sourcePoint" />
            <mxPoint x="500" y="442.5" as="targetPoint" />
          </mxGeometry>
        </mxCell>
        <mxCell id="fzw-q2s4QNKM716sb-pk-71" value="" style="endArrow=classic;html=1;fontSize=12;" parent="1" edge="1">
          <mxGeometry width="50" height="50" relative="1" as="geometry">
            <mxPoint x="480" y="344" as="sourcePoint" />
            <mxPoint x="500" y="344" as="targetPoint" />
          </mxGeometry>
        </mxCell>
        <mxCell id="fzw-q2s4QNKM716sb-pk-72" value="" style="endArrow=classic;html=1;fontSize=12;" parent="1" edge="1">
          <mxGeometry width="50" height="50" relative="1" as="geometry">
            <mxPoint x="480" y="219.5" as="sourcePoint" />
            <mxPoint x="500" y="219.5" as="targetPoint" />
          </mxGeometry>
        </mxCell>
        <mxCell id="fzw-q2s4QNKM716sb-pk-73" value="" style="endArrow=classic;html=1;fontSize=12;" parent="1" edge="1">
          <mxGeometry width="50" height="50" relative="1" as="geometry">
            <mxPoint x="480" y="652.5" as="sourcePoint" />
            <mxPoint x="500" y="652.5" as="targetPoint" />
          </mxGeometry>
        </mxCell>
        <mxCell id="CvPtE23ecwARMVToVUDU-1" value="数据中心规划建设基本流程" style="text;html=1;align=center;verticalAlign=middle;resizable=0;points=[];autosize=1;fontSize=33;" vertex="1" parent="1">
          <mxGeometry x="200" y="110" width="410" height="50" as="geometry" />
        </mxCell>
      </root>
    </mxGraphModel>
  </diagram>
</mxfile>
